<svg xmlns="http://www.w3.org/2000/svg" xml:space="preserve" style="enable-background:new 0 0 350 76" viewBox="0 0 350 76"><style>.st0{fill:#fff}</style><g id="bug-seg"><path d="M79.8 24C70.2 3.4 45.7-5.6 25.1 4S-4.5 38 5 58.6c.3.6.5 1.1.8 1.7-5.1-12.4-3.7-26 2.8-36.8-.2 3.9.3 8 1.3 12C6.6 50 11.8 65.7 24.4 75.2c.3.2.6.5.9.7-15.1-12.2-18.8-33.6-9.1-50.1-.4 5.1.3 10.3 1.9 15.3-.7 13.8 6.7 27.4 20 33.8.2.1.4.2.7.3-12-6.1-19.1-18.1-19.4-30.8 1.9 4.4 4.7 8.5 8.3 12.1.3.3.6.5.8.8-4.4-4.6-7.4-10-9.1-15.7.3-4.5 1.4-9 3.4-13.3.8-1.7 1.8-3.3 2.8-4.8-.7 5.2-.2 10.5 1.4 15.5-.7 14.7 9 28.4 23.9 32.1.1 0 .3.1.4.1-16.7-4.5-26.8-21.5-22.6-38.4C32.6 17.6 46.9 7.8 62 9c1.5.3 2.9.7 4.4 1.2.1 0 .2.1.3.1 5.7 3.8 10.5 9 13.9 15.4-.3-.6-.6-1.1-.8-1.7zM45.4 3.5c6 .2 11.8 1.7 17.1 4.3-6.1-2.4-12.6-3.2-18.9-2.5.5-.6 1.1-1.2 1.8-1.8zm-1.2 0c-.7.6-1.3 1.3-1.9 2-3 .4-6 1.2-8.8 2.4 1-1.3 2.1-2.6 3.2-3.8 2.5-.4 5-.6 7.5-.6zm-3.5 4.1c-.8 1-1.4 2.1-2.1 3.3-3.8 1.8-7.3 4.2-10.3 7.2.8-2.4 1.8-4.7 3.1-7 2.9-1.5 6.1-2.7 9.3-3.5zm-14-.3c2.5-1.2 5-2 7.6-2.6-1.1 1.2-2.1 2.5-3 3.9-.2.1-.3.3-.4.4-4 1.9-7.6 4.5-10.8 7.8 1.1-2.9 2.5-5.7 4.2-8.3l2.4-1.2zm-9.8 13.3c-3.2 4.3-5.5 9-6.7 13.9-.7-4.7-.5-9.4.4-13.9 2.6-3.6 5.9-6.9 9.6-9.5-1.5 3-2.6 6.2-3.3 9.5 0-.1 0 0 0 0zm4.6 7.1c-1.6 3.3-2.6 6.6-3.1 10-1-5.1-.9-10.4.1-15.5.1-.1.1-.2.2-.2 2.9-3.8 6.4-7 10.2-9.4-1.2 2.5-2.2 5.2-2.8 7.8-1.7 2.2-3.3 4.6-4.6 7.3zm6.4 4.9c-.3 1.1-.5 2.3-.7 3.4-1-4.9-.9-10 .2-15 2.9-3.5 6.4-6.4 10.3-8.5-.3.6-.6 1.2-.8 1.8-.6 1.4-1 2.8-1.4 4.2-3.5 4-6.2 8.7-7.6 14.1zm8.9-15.2c.3-.9.6-1.7.9-2.6.4-1 .9-1.9 1.3-2.9 6.7-3.3 14.3-4.5 21.8-3.2-9-.6-17.6 2.7-24 8.7zM63.4 9C55.5 6.7 47.3 7.3 40 10.3c.6-1 1.3-2 2-2.9 7.2-1.5 14.8-.9 21.9 1.8-.2-.1-.3-.1-.5-.2zm.6.2h.2c.1.1.3.1.4.2-.2-.1-.4-.1-.6-.2z" class="st0"/><path d="M76.6 28.1H63v8.4h13.2v5H63v11.7h13.6v5H57.9v-35h18.8v4.9zm19.8 11.8h14v1.2c0 2.6-.3 5-.9 7-.6 1.9-1.6 3.6-3 5.3-3.2 3.7-7.2 5.5-12 5.5s-8.8-1.8-12.2-5.3c-3.4-3.5-5.1-7.8-5.1-12.8 0-5.1 1.7-9.4 5.2-12.9 3.4-3.5 7.6-5.3 12.6-5.3 2.7 0 5.1.6 7.4 1.7 2.2 1.1 4.4 2.9 6.5 5.4l-3.7 3.6c-2.8-3.8-6.2-5.7-10.2-5.7-3.6 0-6.6 1.3-9 3.8-2.4 2.5-3.7 5.6-3.7 9.4 0 3.9 1.4 7.1 4.1 9.6 2.5 2.3 5.3 3.5 8.3 3.5 2.5 0 4.8-.9 6.8-2.6 2-1.8 3.1-3.9 3.4-6.3h-8.5v-5.1zM55.3 28.3l-4.2 2.5c-.8-1.4-1.5-2.3-2.2-2.7-.7-.5-1.7-.7-2.8-.7-1.4 0-2.6.4-3.5 1.2-.9.8-1.4 1.8-1.4 3.1 0 1.7 1.2 3.1 3.7 4.1l3.4 1.4c2.8 1.1 4.8 2.6 6.1 4.2 1.3 1.7 1.9 3.7 1.9 6.1 0 3.2-1 5.9-3.1 8-2.1 2.1-4.7 3.2-7.8 3.2-3 0-5.4-.9-7.3-2.7-1.9-1.8-3.1-4.3-3.5-7.6l5.2-1.2c.2 2.1.6 3.5 1.2 4.3 1.1 1.5 2.6 2.3 4.6 2.3 1.6 0 2.9-.6 4-1.7s1.6-2.5 1.6-4.2c0-.7-.1-1.3-.3-1.9-.2-.6-.5-1.1-.9-1.6s-.9-.9-1.5-1.3-1.4-.8-2.2-1.2L43 40.5c-4.7-2-7-5-7-8.9 0-2.6 1-4.8 2.9-6.6 2-1.8 4.4-2.7 7.3-2.7 3.9.2 6.9 2.1 9.1 6zm50.1 35.3c-.1-.2-.3-.4-.6-.4s-.6.2-.6.5.3.4.6.5l.2.1c.5.2.8.4.8 1s-.5 1.1-1.1 1.1c-.6 0-1-.4-1.1-.9l.4-.1c.1.4.3.7.7.7.4 0 .7-.3.7-.7 0-.4-.3-.5-.6-.7l-.2-.1c-.4-.2-.8-.4-.8-.9s.5-.9 1-.9c.4 0 .7.2.9.5l-.3.3zm1.6-.9 1.3 3 1.3-3 .7 3.7h-.4l-.5-2.4-1.1 2.5-1.1-2.5-.5 2.4h-.4l.7-3.7z" class="st0"/></g><path id="seg-text" d="M121.9 52.4h38.6v1.1h-38.6zm187.9 0h38.9v1.1h-38.9zM130.9 32.7c0-2 .7-3.6 2.2-5.1 1.4-1.4 3.2-2.1 5.2-2.1s3.7.7 5.1 2.1c1.4 1.4 2.1 3.1 2.1 5.1 0 2-.7 3.7-2.1 5.1-1.4 1.4-3.2 2.1-5.2 2.1-1.8 0-3.4-.6-4.8-1.9-1.7-1.3-2.5-3.1-2.5-5.3zm2.1 0c0 1.5.5 2.8 1.6 3.8 1 1 2.2 1.5 3.6 1.5 1.5 0 2.7-.5 3.7-1.5s1.5-2.3 1.5-3.7c0-1.5-.5-2.7-1.5-3.7s-2.2-1.5-3.7-1.5c-1.4 0-2.7.5-3.7 1.5-1 .9-1.5 2.2-1.5 3.6zm31.4-6.9v13.9h-2.1V25.8h2.1zm10 2h-5.6v3.3h5.4v2h-5.4v4.7h5.6v2h-7.7v-14h7.7v2zm6.6 0v11.9h-2.1V27.8h-3.2v-2h8.5v2H181zm8.8 5.9-4.5-7.9h2.4l3.2 5.6 3.2-5.6h2.4l-4.6 7.9v6h-2.1v-6zm11.8-1c0-2 .7-3.6 2.2-5.1 1.4-1.4 3.2-2.1 5.2-2.1s3.7.7 5.1 2.1c1.4 1.4 2.1 3.1 2.1 5.1 0 2-.7 3.7-2.1 5.1-1.4 1.4-3.2 2.1-5.2 2.1-1.8 0-3.4-.6-4.8-1.9-1.8-1.3-2.5-3.1-2.5-5.3zm2.1 0c0 1.5.5 2.8 1.6 3.8 1 1 2.2 1.5 3.6 1.5 1.5 0 2.7-.5 3.7-1.5s1.5-2.3 1.5-3.7c0-1.5-.5-2.7-1.5-3.7s-2.2-1.5-3.7-1.5c-1.4 0-2.7.5-3.7 1.5-1 .9-1.5 2.2-1.5 3.6zm20.5-4.9h-4.9v3.3h4.7v2h-4.7v6.6h-2.1V25.8h7v2zm15.1 0h-5.6v3.3h5.4v2h-5.4v4.7h5.6v2h-7.7v-14h7.7v2zm5.3 4.6-3.8-6.6h2.4l2.7 4.7 2.8-4.7h2.4l-4 6.6 4.2 7.3h-2.4l-3.1-5.3-3.2 5.3h-2.4l4.4-7.3zm9.9 1.7v5.7h-2.1v-14h2.4c1.2 0 2 .1 2.6.2.6.2 1.1.5 1.6.9.8.8 1.2 1.8 1.2 3 0 1.3-.4 2.3-1.3 3-.9.7-2 1.1-3.5 1.1h-.9zm0-2h.8c1.9 0 2.9-.7 2.9-2.2 0-1.4-1-2.2-3-2.2h-.7v4.4zm9.6-6.3v11.9h4.1v2H262V25.8h2.1zm4.1 6.9c0-2 .7-3.6 2.2-5.1 1.4-1.4 3.2-2.1 5.2-2.1s3.7.7 5.1 2.1c1.4 1.4 2.1 3.1 2.1 5.1 0 2-.7 3.7-2.1 5.1-1.4 1.4-3.2 2.1-5.2 2.1-1.8 0-3.4-.6-4.8-1.9-1.8-1.3-2.5-3.1-2.5-5.3zm2.1 0c0 1.5.5 2.8 1.6 3.8 1 1 2.2 1.5 3.6 1.5 1.5 0 2.7-.5 3.7-1.5s1.5-2.3 1.5-3.7c0-1.5-.5-2.7-1.5-3.7s-2.2-1.5-3.7-1.5c-1.4 0-2.7.5-3.7 1.5-1 .9-1.5 2.2-1.5 3.6zm18.7 1.1 4.3 5.9h-2.6l-4-5.7h-.4v5.7h-2.1V25.8h2.5c1.8 0 3.2.3 4 1 .9.8 1.4 1.8 1.4 3 0 1-.3 1.8-.8 2.5-.7.8-1.4 1.3-2.3 1.5zm-2.7-1.6h.7c2 0 3-.8 3-2.3 0-1.4-1-2.1-2.9-2.1h-.7v4.4zm17.2 4.1h-6l-1.6 3.4h-2.3l6.9-14.8 6.6 14.8H305l-1.5-3.4zm-.8-1.9-2.1-4.7-2.2 4.7h4.3zm9-6.6v11.9h-2.1V27.8h-3.2v-2h8.5v2h-3.2zm7.2-2v13.9h-2.1V25.8h2.1zm1.6 6.9c0-2 .7-3.6 2.2-5.1 1.4-1.4 3.2-2.1 5.2-2.1s3.7.7 5.1 2.1c1.4 1.4 2.1 3.1 2.1 5.1 0 2-.7 3.7-2.1 5.1-1.4 1.4-3.2 2.1-5.2 2.1-1.8 0-3.4-.6-4.8-1.9-1.8-1.3-2.5-3.1-2.5-5.3zm2.1 0c0 1.5.5 2.8 1.6 3.8 1 1 2.2 1.5 3.6 1.5 1.5 0 2.7-.5 3.7-1.5s1.5-2.3 1.5-3.7c0-1.5-.5-2.7-1.5-3.7s-2.2-1.5-3.7-1.5c-1.4 0-2.7.5-3.7 1.5-1 .9-1.5 2.2-1.5 3.6zm13.9 7V24.9l10.2 10.6v-9.7h2.1v14.8L338.6 30v9.7h-2.1zm-178.1-4.4c-.2.4-.5.8-.9 1.2-1 1-2.2 1.5-3.7 1.5-1.3 0-2.5-.5-3.6-1.5-1-1-1.6-2.3-1.6-3.8s.5-2.7 1.5-3.7 2.2-1.5 3.7-1.5 2.7.5 3.7 1.5c.4.5.8 1 1 1.5l1.6-1.3c-.3-.5-.7-1.1-1.2-1.6-1.4-1.4-3.1-2.1-5.1-2.1-2 0-3.7.7-5.2 2.1-1.4 1.4-2.2 3.1-2.2 5.1 0 2.2.8 4 2.4 5.4 1.4 1.2 3 1.9 4.8 1.9 2 0 3.8-.7 5.2-2.1.4-.4.8-.9 1.1-1.3l-1.5-1.3zm-29.3-2.2c-.5-.7-1.2-1.2-2.2-1.7l-1.2-.6c-.9-.4-1.4-1-1.4-1.6 0-.5.2-.9.5-1.2.3-.3.8-.5 1.3-.5.4 0 .8.1 1 .3.3.2.8.4 1.1 1l1.3-1.2c-1.1-1.4-2-2.1-3.4-2.1-1.1 0-2 .4-2.7 1.1-.7.7-1.1 1.6-1.1 2.6 0 1.6.9 2.7 2.6 3.5l1.2.6c.3.2.6.3.8.5.2.2.4.3.6.5l.3.6c.1.2.1.5.1.7 0 .7-.2 1.2-.6 1.7-.4.4-.9.7-1.5.7-1.5 0-2.1-1.5-2.5-2.2l-1.6 1.2c.8 2.5 2.9 3 4 3s2.1-.4 2.9-1.3c.8-.8 1.1-1.9 1.1-3.2.1-.9-.2-1.7-.6-2.4zm45.3 19.2h5.8v.5c0 1-.1 2-.4 2.8-.2.7-.6 1.4-1.2 2.1-1.3 1.5-2.9 2.2-4.9 2.2-1.9 0-3.6-.7-5-2.1-1.4-1.4-2.1-3.1-2.1-5.1 0-2 .7-3.7 2.1-5.1 1.4-1.4 3.1-2.1 5.2-2.1 1.1 0 2.1.2 3 .7.9.4 1.8 1.2 2.7 2.2l-1.5 1.4c-1.1-1.5-2.5-2.3-4.2-2.3-1.5 0-2.7.5-3.7 1.5s-1.5 2.2-1.5 3.8c0 1.6.6 2.8 1.7 3.8 1 .9 2.2 1.4 3.4 1.4 1 0 2-.3 2.8-1 .8-.7 1.3-1.5 1.4-2.5h-3.5v-2.2zm15.7-4.7h-5.6v3.3h5.4v2h-5.4v4.7h5.6v2h-7.7v-14h7.7v2zm2.1 4.9c0-2 .7-3.6 2.2-5.1 1.4-1.4 3.2-2.1 5.2-2.1s3.7.7 5.1 2.1c1.4 1.4 2.1 3.1 2.1 5.1 0 2-.7 3.7-2.1 5.1-1.4 1.4-3.2 2.1-5.2 2.1-1.8 0-3.4-.6-4.8-1.9-1.7-1.3-2.5-3.1-2.5-5.3zm2.1 0c0 1.5.5 2.8 1.6 3.8 1 1 2.2 1.5 3.6 1.5 1.5 0 2.7-.5 3.7-1.5s1.5-2.3 1.5-3.7c0-1.5-.5-2.7-1.5-3.7s-2.2-1.5-3.7-1.5c-1.4 0-2.7.5-3.7 1.5-1 .9-1.5 2.2-1.5 3.6zm16.8 1.4v5.7H209v-14h2.4c1.2 0 2 .1 2.6.2.6.2 1.1.5 1.6.9.8.8 1.2 1.8 1.2 3 0 1.3-.4 2.3-1.3 3-.9.7-2 1.1-3.5 1.1h-.9zm0-2h.8c1.9 0 2.9-.7 2.9-2.2 0-1.4-1-2.2-3-2.2h-.7v4.4zm10-.9h6v-5.4h2.1v13.9h-2.1V53h-6v6.5H219V45.6h2.1V51zm14.3 2.5-4.5-7.9h2.4l3.2 5.6 3.2-5.6h2.4l-4.6 7.9v6h-2.1v-6zm19.3-7.9v13.9h-2.1V45.6h2.1zm20.8 0v13.9h-2.1V45.6h2.1zm16.6 2v11.9H290V47.6h-3.2v-2h8.5v2h-3.2zm-23 7.5c-.2.4-.5.8-.9 1.2-1 1-2.2 1.5-3.7 1.5-1.3 0-2.5-.5-3.6-1.5-1-1-1.6-2.3-1.6-3.8s.5-2.7 1.5-3.7 2.2-1.5 3.7-1.5 2.7.5 3.7 1.5c.4.5.8 1 1 1.5l1.6-1.3c-.3-.5-.7-1.1-1.2-1.6-1.4-1.4-3.1-2.1-5.1-2.1-2 0-3.7.7-5.2 2.1-1.4 1.4-2.2 3.1-2.2 5.1 0 2.2.8 4 2.4 5.4 1.4 1.2 3 1.9 4.8 1.9 2 0 3.8-.7 5.2-2.1.4-.4.8-.9 1.1-1.3l-1.5-1.3zm-19.3-2.2c-.5-.7-1.2-1.2-2.2-1.7l-1.2-.6c-.9-.4-1.4-1-1.4-1.6 0-.5.2-.9.5-1.2.3-.3.8-.5 1.3-.5.4 0 .8.1 1 .3.3.2.8.4 1.1 1l1.3-1.2c-1.1-1.4-2-2.1-3.4-2.1-1.1 0-2 .4-2.7 1.1-.7.7-1.1 1.6-1.1 2.6 0 1.6.9 2.7 2.6 3.5l1.2.6c.3.2.6.3.8.5.2.2.4.3.6.5l.3.6c.1.2.1.5.1.7 0 .7-.2 1.2-.6 1.7-.4.4-.9.7-1.5.7-1.5 0-2.1-1.5-2.5-2.2l-1.6 1.2c.8 2.5 2.9 3 4 3s2.1-.4 2.9-1.3c.8-.8 1.1-1.9 1.1-3.2.1-.9-.2-1.7-.6-2.4zm35 0c-.5-.7-1.2-1.2-2.2-1.7l-1.2-.6c-.9-.4-1.4-1-1.4-1.6 0-.5.2-.9.5-1.2.3-.3.8-.5 1.3-.5.4 0 .8.1 1 .3.3.2.8.4 1.1 1l1.3-1.2c-1.1-1.4-2-2.1-3.4-2.1-1.1 0-2 .4-2.7 1.1-.7.7-1.1 1.6-1.1 2.6 0 1.6.9 2.7 2.6 3.5l1.2.6c.3.2.6.3.8.5.2.2.4.3.6.5l.3.6c.1.2.1.5.1.7 0 .7-.2 1.2-.6 1.7-.4.4-.9.7-1.5.7-1.5 0-2.1-1.5-2.5-2.2l-1.6 1.2c.8 2.5 2.9 3 4 3s2.1-.4 2.9-1.3c.8-.8 1.1-1.9 1.1-3.2.1-.9-.1-1.7-.6-2.4zm18.5 0c-.5-.7-1.2-1.2-2.2-1.7l-1.2-.6c-.9-.4-1.4-1-1.4-1.6 0-.5.2-.9.5-1.2.3-.3.8-.5 1.3-.5.4 0 .8.1 1 .3.3.2.8.4 1.1 1l1.3-1.2c-1.1-1.4-2-2.1-3.4-2.1-1.1 0-2 .4-2.7 1.1-.7.7-1.1 1.6-1.1 2.6 0 1.6.9 2.7 2.6 3.5l1.2.6c.3.2.6.3.8.5.2.2.4.3.6.5l.3.6c.1.2.1.5.1.7 0 .7-.2 1.2-.6 1.7-.4.4-.9.7-1.5.7-1.5 0-2.1-1.5-2.5-2.2l-1.6 1.2c.8 2.5 2.9 3 4 3s2.1-.4 2.9-1.3c.8-.8 1.1-1.9 1.1-3.2.1-.9-.1-1.7-.6-2.4z" class="st0"/></svg>